<?xml version="1.0" encoding="UTF-8"?>
<!DOCTYPE svg PUBLIC "-//W3C//DTD SVG 1.1//EN" "http://www.w3.org/Graphics/SVG/1.1/DTD/svg11.dtd">
<svg xmlns="http://www.w3.org/2000/svg" version="1.1" width="89px" height="86px" style="shape-rendering:geometricPrecision; text-rendering:geometricPrecision; image-rendering:optimizeQuality; fill-rule:evenodd; clip-rule:evenodd" xmlns:xlink="http://www.w3.org/1999/xlink">
<g><path style="opacity:0.927" fill="#a5a6a5" d="M 36.5,-0.5 C 41.1667,-0.5 45.8333,-0.5 50.5,-0.5C 56.1003,0.761811 61.4336,2.92848 66.5,6C 65.2921,8.25029 63.9587,10.417 62.5,12.5C 64.0082,14.5075 65.8416,16.1741 68,17.5C 69.1965,20.0891 70.1965,22.7558 71,25.5C 76.7753,29.6334 82.6087,33.6334 88.5,37.5C 88.5,37.8333 88.5,38.1667 88.5,38.5C 85.8127,38.3359 83.146,38.5026 80.5,39C 86.8191,41.317 87.1525,44.317 81.5,48C 78.4103,49.3634 75.2436,50.53 72,51.5C 68.6935,50.3476 65.6935,48.681 63,46.5C 61.8867,48.3293 60.3867,49.1626 58.5,49C 54.6562,46.578 50.9895,43.9113 47.5,41C 48.5171,39.9505 48.6838,38.7839 48,37.5C 47.1667,39.1667 46.3333,40.8333 45.5,42.5C 50.8333,47.5 56.1667,52.5 61.5,57.5C 59.0962,58.35 56.7628,59.35 54.5,60.5C 58.2411,68.9815 62.2411,77.3148 66.5,85.5C 65.8333,85.5 65.1667,85.5 64.5,85.5C 57.1891,77.1864 49.8557,68.8531 42.5,60.5C 37.5678,68.699 32.9012,77.0323 28.5,85.5C 27.8333,85.5 27.1667,85.5 26.5,85.5C 19.8666,80.5811 16.0333,73.9144 15,65.5C 13.6338,67.3703 12.4672,69.3703 11.5,71.5C 10.5,72.8333 9.5,72.8333 8.5,71.5C 2.12196,60.7565 1.28863,49.7565 6,38.5C 3.94806,39.7929 1.78139,40.7929 -0.5,41.5C -0.5,40.1667 -0.5,38.8333 -0.5,37.5C 1.31209,26.7367 7.31209,19.2367 17.5,15C 16.1667,14 14.8333,13 13.5,12C 20.0881,5.70839 27.7548,1.54172 36.5,-0.5 Z M 40.5,9.5 C 43.9743,9.74727 44.641,10.7473 42.5,12.5C 45.2449,15.3453 45.0782,18.012 42,20.5C 40.0579,16.9074 39.5579,13.2408 40.5,9.5 Z M 60.5,26.5 C 62.1667,26.5 63.8333,26.5 65.5,26.5C 65.33,27.8221 65.6634,28.9887 66.5,30C 63.7559,29.9808 61.0893,29.3141 58.5,28C 59.4158,27.7216 60.0825,27.2216 60.5,26.5 Z M 37.5,28.5 C 33.2758,33.2317 29.6091,38.3984 26.5,44C 27.8333,44.3333 29.1667,44.6667 30.5,45C 24.7635,50.6386 21.2635,57.472 20,65.5C 19.653,59.0769 21.153,53.0769 24.5,47.5C 24.1667,47.1667 23.8333,46.8333 23.5,46.5C 21.5171,47.982 19.6837,49.6487 18,51.5C 20.2234,43.9175 24.3901,37.4175 30.5,32C 32.5766,30.295 34.91,29.1283 37.5,28.5 Z"/></g>
<g><path style="opacity:0.753" fill="#a5a6a5" d="M 76.5,52.5 C 77.9778,52.238 79.3112,52.5713 80.5,53.5C 79.1455,58.0715 77.3122,62.4049 75,66.5C 73.9052,62.6151 72.7386,58.7817 71.5,55C 73.3146,54.2432 74.9812,53.4098 76.5,52.5 Z"/></g>
</svg>
